<mxfile host="app.diagrams.net" modified="2023-04-10T11:40:16.470Z" agent="Mozilla/5.0 (Windows NT 10.0; Win64; x64) AppleWebKit/537.36 (KHTML, like Gecko) Chrome/112.0.0.0 Safari/537.36" version="21.1.5" etag="u9uwyKDbPmDQFIz39g-S" type="github">
  <diagram name="Page-1" id="nF1ajHOt5IyO5t8-scIK">
    <mxGraphModel>
      <root>
        <mxCell id="0" />
        <mxCell id="1" parent="0" />
      </root>
    </mxGraphModel>
  </diagram>
</mxfile>
